ply
format ascii 1.0
comment Created by Blender 2.79 (sub 0) - www.blender.org, source file: 'tennis.blend'
element vertex 298
property float x
property float y
property float z
property float nx
property float ny
property float nz
property uchar red
property uchar green
property uchar blue
element face 103
property list uchar uint vertex_indices
end_header
5.900001 -0.100000 0.000000 -1.000000 -0.000000 0.000000 120 120 120
5.900001 -0.100000 0.914400 -1.000000 -0.000000 0.000000 120 120 120
5.900001 0.100000 0.914400 -1.000000 -0.000000 0.000000 120 120 120
5.900001 0.100000 0.000000 -1.000000 -0.000000 0.000000 120 120 120
5.900001 0.100000 0.000000 0.000000 1.000000 0.000000 120 120 120
5.900001 0.100000 0.914400 0.000000 1.000000 0.000000 120 120 120
6.100001 0.100000 0.914400 0.000000 1.000000 0.000000 120 120 120
6.100001 0.100000 0.000000 0.000000 1.000000 0.000000 120 120 120
6.100001 0.100000 0.000000 1.000000 -0.000000 0.000000 255 255 255
6.100001 0.100000 0.914400 1.000000 -0.000000 0.000000 255 255 255
6.100001 -0.100000 0.914400 1.000000 -0.000000 0.000000 255 255 255
6.100001 -0.100000 0.000000 1.000000 -0.000000 0.000000 255 255 255
5.900001 -0.100000 0.914400 -0.000000 -1.000000 0.000000 120 120 120
5.900001 -0.100000 0.000000 -0.000000 -1.000000 0.000000 120 120 120
6.100001 -0.100000 0.000000 -0.000000 -1.000000 0.000000 120 120 120
6.100001 -0.100000 0.914400 -0.000000 -1.000000 0.000000 120 120 120
6.100001 -0.100000 0.000000 0.000000 -0.000000 -1.000000 255 255 255
5.900001 -0.100000 0.000000 0.000000 -0.000000 -1.000000 255 255 255
5.900001 0.100000 0.000000 0.000000 -0.000000 -1.000000 255 255 255
6.100001 0.100000 0.000000 0.000000 -0.000000 -1.000000 255 255 255
6.100001 0.100000 0.914400 0.000000 -0.000000 1.000000 120 120 120
5.900001 0.100000 0.914400 0.000000 -0.000000 1.000000 120 120 120
5.900001 -0.100000 0.914400 0.000000 -0.000000 1.000000 120 120 120
6.100001 -0.100000 0.914400 0.000000 -0.000000 1.000000 120 120 120
-6.099999 -0.100000 0.000000 -1.000000 -0.000000 0.000000 255 255 255
-6.099999 -0.100000 0.914400 -1.000000 -0.000000 0.000000 253 253 253
-6.099999 0.100000 0.914400 -1.000000 -0.000000 0.000000 254 254 254
-6.099999 0.100000 0.000000 -1.000000 -0.000000 0.000000 255 255 255
-6.099999 0.100000 0.000000 0.000000 1.000000 0.000000 120 120 120
-6.099999 0.100000 0.914400 0.000000 1.000000 0.000000 120 120 120
-5.899999 0.100000 0.914400 0.000000 1.000000 0.000000 120 120 120
-5.899999 0.100000 0.000000 0.000000 1.000000 0.000000 120 120 120
-5.899999 0.100000 0.000000 1.000000 -0.000000 0.000000 120 120 120
-5.899999 0.100000 0.914400 1.000000 -0.000000 0.000000 120 120 120
-5.899999 -0.100000 0.914400 1.000000 -0.000000 0.000000 120 120 120
-5.899999 -0.100000 0.000000 1.000000 -0.000000 0.000000 120 120 120
-5.899999 -0.100000 0.000000 0.000000 -1.000000 0.000000 120 120 120
-5.899999 -0.100000 0.914400 0.000000 -1.000000 0.000000 120 120 120
-6.099999 -0.100000 0.914400 0.000000 -1.000000 0.000000 120 120 120
-6.099999 -0.100000 0.000000 0.000000 -1.000000 0.000000 120 120 120
-6.099999 0.100000 0.000000 0.000000 0.000000 -1.000000 120 120 120
-5.899999 0.100000 0.000000 0.000000 0.000000 -1.000000 120 120 120
-5.899999 -0.100000 0.000000 0.000000 0.000000 -1.000000 120 120 120
-6.099999 -0.100000 0.000000 0.000000 0.000000 -1.000000 120 120 120
-5.899999 0.100000 0.914400 0.000000 -0.000000 1.000000 120 120 120
-6.099999 0.100000 0.914400 0.000000 -0.000000 1.000000 120 120 120
-6.099999 -0.100000 0.914400 0.000000 -0.000000 1.000000 120 120 120
-5.899999 -0.100000 0.914400 0.000000 -0.000000 1.000000 120 120 120
-5.900000 -0.010000 0.000000 -1.000000 -0.000000 0.000000 255 255 255
-5.900000 -0.010000 0.914400 -1.000000 -0.000000 0.000000 255 255 255
-5.900000 0.010000 0.914400 -1.000000 -0.000000 0.000000 255 255 255
-5.900000 0.010000 0.000000 -1.000000 -0.000000 0.000000 255 255 255
-5.900000 0.010000 0.000000 0.000000 1.000000 0.000000 120 120 120
-5.900000 0.010000 0.914400 0.000000 1.000000 0.000000 120 120 120
5.900000 0.010000 0.914400 0.000000 1.000000 0.000000 120 120 120
5.900000 0.010000 0.000000 0.000000 1.000000 0.000000 120 120 120
5.900000 0.010000 0.000000 1.000000 -0.000000 0.000000 120 120 120
5.900000 0.010000 0.914400 1.000000 -0.000000 0.000000 120 120 120
5.900000 -0.010000 0.914400 1.000000 -0.000000 0.000000 120 120 120
5.900000 -0.010000 0.000000 1.000000 -0.000000 0.000000 120 120 120
5.900000 -0.010000 0.000000 0.000000 -1.000000 0.000000 120 120 120
5.900000 -0.010000 0.914400 0.000000 -1.000000 0.000000 120 120 120
-5.900000 -0.010000 0.914400 0.000000 -1.000000 0.000000 120 120 120
-5.900000 -0.010000 0.000000 0.000000 -1.000000 0.000000 120 120 120
-5.900000 0.010000 0.000000 0.000000 0.000000 -1.000000 120 120 120
5.900000 0.010000 0.000000 0.000000 0.000000 -1.000000 120 120 120
5.900000 -0.010000 0.000000 0.000000 0.000000 -1.000000 120 120 120
-5.900000 -0.010000 0.000000 0.000000 0.000000 -1.000000 120 120 120
5.900000 0.010000 0.914400 0.000000 -0.000000 1.000000 120 120 120
-5.900000 0.010000 0.914400 0.000000 -0.000000 1.000000 120 120 120
-5.900000 -0.010000 0.914400 0.000000 -0.000000 1.000000 120 120 120
5.900000 -0.010000 0.914400 0.000000 -0.000000 1.000000 120 120 120
-4.115000 11.890000 0.000000 0.000000 -0.000000 1.000000 255 255 255
-5.485000 11.890000 0.000000 0.000000 -0.000000 1.000000 255 255 255
-5.385000 11.790000 0.000000 0.000000 -0.000000 1.000000 255 255 255
-4.115000 11.790000 0.000000 0.000000 -0.000000 1.000000 255 255 255
4.115000 -11.890000 0.000000 0.000000 0.000000 1.000000 255 255 255
5.485000 -11.890000 0.000000 0.000000 0.000000 1.000000 255 255 255
5.385000 -11.790000 0.000000 0.000000 0.000000 1.000000 255 255 255
4.115000 -11.790000 0.000000 0.000000 0.000000 1.000000 255 255 255
5.485000 11.890000 0.000000 0.000000 -0.000000 1.000000 255 255 255
5.385000 11.790000 0.000000 0.000000 -0.000000 1.000000 255 255 255
5.385000 0.050000 0.000000 0.000000 -0.000000 1.000000 255 255 255
5.485000 0.050000 0.000000 0.000000 -0.000000 1.000000 255 255 255
-5.485000 -11.890000 0.000000 0.000000 0.000000 1.000000 255 255 255
-5.385000 -11.790000 0.000000 0.000000 0.000000 1.000000 255 255 255
-5.385000 -0.050000 0.000000 0.000000 0.000000 1.000000 255 255 255
-5.485000 -0.050000 0.000000 0.000000 0.000000 1.000000 255 255 255
-5.385000 -0.050000 0.000000 0.000000 -0.000000 -1.000000 120 120 120
-5.485000 -0.050000 0.000000 0.000000 -0.000000 -1.000000 120 120 120
-5.485000 0.050000 0.000000 0.000000 -0.000000 -1.000000 120 120 120
-5.385000 0.050000 0.000000 0.000000 -0.000000 -1.000000 120 120 120
-5.385000 0.050000 0.000000 -0.000000 0.000000 1.000000 255 255 255
-5.485000 0.050000 0.000000 -0.000000 0.000000 1.000000 255 255 255
5.385000 0.050000 0.000000 0.000000 0.000000 -1.000000 255 255 255
5.485000 0.050000 0.000000 0.000000 0.000000 -1.000000 255 255 255
5.485000 -0.050000 0.000000 0.000000 0.000000 -1.000000 255 255 255
5.385000 -0.050000 0.000000 0.000000 0.000000 -1.000000 255 255 255
5.385000 -0.050000 0.000000 0.000000 0.000000 1.000000 255 255 255
5.485000 -0.050000 0.000000 0.000000 0.000000 1.000000 255 255 255
0.050000 -11.890000 0.000000 0.000000 0.000000 1.000000 252 252 252
4.015000 -11.890000 0.000000 0.000000 0.000000 1.000000 255 255 255
4.015000 -11.790000 0.000000 0.000000 0.000000 1.000000 255 255 255
0.050000 -11.790000 0.000000 0.000000 0.000000 1.000000 251 251 251
-4.115000 -11.890000 0.000000 0.000000 0.000000 1.000000 255 255 255
-4.015000 -11.890000 0.000000 0.000000 0.000000 1.000000 255 255 255
-4.015000 -11.790000 0.000000 0.000000 0.000000 1.000000 255 255 255
-4.115000 -11.790000 0.000000 0.000000 0.000000 1.000000 255 255 255
4.115000 11.890000 0.000000 0.000000 -0.000000 1.000000 255 255 255
4.015000 11.890000 0.000000 0.000000 -0.000000 1.000000 255 255 255
4.015000 11.790000 0.000000 0.000000 -0.000000 1.000000 255 255 255
4.115000 11.790000 0.000000 0.000000 -0.000000 1.000000 255 255 255
-4.015000 11.890000 0.000000 0.000000 -0.000000 1.000000 255 255 255
-4.015000 11.790000 0.000000 0.000000 -0.000000 1.000000 255 255 255
-0.050000 11.890000 0.000000 0.000000 -0.000000 1.000000 187 187 187
-0.050000 11.790000 0.000000 0.000000 -0.000000 1.000000 179 179 179
4.115000 -6.400000 0.000000 0.000000 0.000000 1.000000 255 255 255
4.015000 -6.400000 0.000000 0.000000 0.000000 1.000000 255 255 255
-4.015000 -6.400000 0.000000 0.000000 0.000000 1.000000 255 255 255
-4.115000 -6.400000 0.000000 0.000000 0.000000 1.000000 255 255 255
-4.115000 6.400000 0.000000 0.000000 -0.000000 1.000000 255 255 255
-4.015000 6.400000 0.000000 0.000000 -0.000000 1.000000 255 255 255
4.015000 6.400000 0.000000 0.000000 -0.000000 1.000000 255 255 255
4.115000 6.400000 0.000000 0.000000 -0.000000 1.000000 255 255 255
-4.015000 6.400000 0.000000 0.000000 -0.000000 1.000000 120 120 120
-4.115000 6.400000 0.000000 0.000000 -0.000000 1.000000 120 120 120
-4.115000 6.300000 0.000000 0.000000 -0.000000 1.000000 120 120 120
-4.015000 6.300000 0.000000 0.000000 -0.000000 1.000000 120 120 120
4.115000 6.400000 0.000000 0.000000 -0.000000 1.000000 158 158 158
4.015000 6.400000 0.000000 0.000000 -0.000000 1.000000 146 146 146
4.015000 6.300000 0.000000 0.000000 -0.000000 1.000000 141 141 141
4.115000 6.300000 0.000000 0.000000 -0.000000 1.000000 154 154 154
4.115000 6.300000 0.000000 0.000000 -0.000000 1.000000 255 255 255
4.015000 6.300000 0.000000 0.000000 -0.000000 1.000000 255 255 255
4.015000 0.050000 0.000000 0.000000 -0.000000 1.000000 255 255 255
4.115000 0.050000 0.000000 0.000000 -0.000000 1.000000 255 255 255
4.015000 -0.050000 0.000000 0.000000 -0.000000 1.000000 255 255 255
4.115000 -0.050000 0.000000 0.000000 -0.000000 1.000000 255 255 255
4.015000 -6.300000 0.000000 0.000000 -0.000000 1.000000 255 255 255
4.115000 -6.300000 0.000000 0.000000 -0.000000 1.000000 255 255 255
-4.015000 6.300000 0.000000 0.000000 -0.000000 1.000000 255 255 255
-4.115000 6.300000 0.000000 0.000000 -0.000000 1.000000 255 255 255
-4.115000 0.050000 0.000000 0.000000 -0.000000 1.000000 255 255 255
-4.015000 0.050000 0.000000 0.000000 -0.000000 1.000000 255 255 255
-4.015000 0.050000 0.000000 0.000000 -0.000000 1.000000 120 120 120
-4.115000 0.050000 0.000000 0.000000 -0.000000 1.000000 120 120 120
-4.115000 -0.050000 0.000000 0.000000 -0.000000 1.000000 120 120 120
-4.015000 -0.050000 0.000000 0.000000 -0.000000 1.000000 120 120 120
-4.015000 -0.050000 0.000000 0.000000 -0.000000 1.000000 255 255 255
-4.115000 -0.050000 0.000000 0.000000 -0.000000 1.000000 255 255 255
-4.115000 -6.300000 0.000000 0.000000 -0.000000 1.000000 255 255 255
-4.015000 -6.300000 0.000000 0.000000 -0.000000 1.000000 255 255 255
-0.050000 -6.400000 0.000000 0.000000 0.000000 1.000000 230 230 230
-0.050000 -6.300000 0.000000 0.000000 0.000000 1.000000 233 233 233
-0.050000 -6.300000 0.000000 0.000000 0.000000 1.000000 255 255 255
-0.050000 -6.400000 0.000000 0.000000 0.000000 1.000000 255 255 255
0.050000 -6.400000 0.000000 0.000000 0.000000 1.000000 255 255 255
0.050000 -6.300000 0.000000 0.000000 0.000000 1.000000 255 255 255
0.050000 -6.300000 0.000000 0.000000 -0.000000 1.000000 222 222 222
0.050000 -6.400000 0.000000 0.000000 -0.000000 1.000000 218 218 218
0.050000 6.400000 0.000000 -0.000000 0.000000 1.000000 235 235 235
0.050000 6.300000 0.000000 -0.000000 0.000000 1.000000 237 237 237
-0.050000 6.400000 0.000000 -0.000000 0.000000 1.000000 243 243 243
-0.050000 6.300000 0.000000 -0.000000 0.000000 1.000000 244 244 244
4.015000 -0.050000 0.000000 -0.000000 0.000000 1.000000 120 120 120
4.015000 0.050000 0.000000 -0.000000 0.000000 1.000000 120 120 120
0.050000 0.050000 0.000000 -0.000000 0.000000 1.000000 120 120 120
0.050000 -0.050000 0.000000 -0.000000 0.000000 1.000000 120 120 120
0.050000 -0.050000 0.000000 -0.000000 0.000000 1.000000 255 255 255
0.050000 0.050000 0.000000 -0.000000 0.000000 1.000000 255 255 255
-0.050000 0.050000 0.000000 -0.000000 0.000000 1.000000 255 255 255
-0.050000 -0.050000 0.000000 -0.000000 0.000000 1.000000 255 255 255
-0.050000 -0.050000 0.000000 0.000000 0.000000 1.000000 120 120 120
-0.050000 0.050000 0.000000 0.000000 0.000000 1.000000 120 120 120
4.015000 -0.050000 0.000000 0.000000 -0.000000 1.000000 60 126 33
0.050000 -0.050000 0.000000 0.000000 -0.000000 1.000000 60 126 33
0.050000 -6.300000 0.000000 0.000000 -0.000000 1.000000 61 125 35
4.015000 -6.300000 0.000000 0.000000 -0.000000 1.000000 60 126 33
-4.015000 -0.050000 0.000000 0.000000 0.000000 1.000000 60 126 33
-4.015000 -6.300000 0.000000 0.000000 0.000000 1.000000 60 126 33
-0.050000 -6.300000 0.000000 0.000000 0.000000 1.000000 62 125 35
-0.050000 -0.050000 0.000000 0.000000 0.000000 1.000000 60 126 33
4.015000 0.050000 0.000000 -0.000000 0.000000 1.000000 60 126 33
4.015000 6.300000 0.000000 -0.000000 0.000000 1.000000 60 126 33
0.050000 6.300000 0.000000 -0.000000 0.000000 1.000000 60 126 33
0.050000 0.050000 0.000000 -0.000000 0.000000 1.000000 60 126 33
-4.015000 0.050000 0.000000 0.000000 0.000000 1.000000 60 126 33
-0.050000 0.050000 0.000000 0.000000 0.000000 1.000000 60 126 33
-0.050000 6.300000 0.000000 0.000000 0.000000 1.000000 60 126 33
-4.015000 6.300000 0.000000 0.000000 0.000000 1.000000 60 126 33
0.050000 11.790000 0.000000 0.000000 -0.000000 1.000000 254 254 254
-0.050000 11.790000 0.000000 0.000000 -0.000000 1.000000 255 255 255
-0.050000 11.590000 0.000000 0.000000 -0.000000 1.000000 254 254 254
0.050000 11.590000 0.000000 0.000000 -0.000000 1.000000 254 254 254
5.385000 0.050000 0.000000 0.000000 0.000000 -1.000000 120 120 120
5.385000 -0.050000 0.000000 0.000000 0.000000 -1.000000 120 120 120
4.115000 -0.050000 0.000000 0.000000 0.000000 -1.000000 120 120 120
4.115000 0.050000 0.000000 0.000000 0.000000 -1.000000 120 120 120
4.115000 -11.790000 0.000000 0.000000 0.000000 1.000000 60 126 33
5.385000 -11.790000 0.000000 0.000000 0.000000 1.000000 60 126 33
5.385000 11.790000 0.000000 0.000000 0.000000 1.000000 60 126 33
4.115000 11.790000 0.000000 0.000000 0.000000 1.000000 60 126 33
-4.015000 -6.400000 0.000000 0.000000 0.000000 1.000000 60 126 33
-4.015000 -11.790000 0.000000 0.000000 0.000000 1.000000 60 126 33
-0.050000 -11.590000 0.000000 0.000000 0.000000 1.000000 60 126 33
-0.050000 -6.400000 0.000000 0.000000 0.000000 1.000000 62 125 35
-4.115000 0.050000 0.000000 -0.000000 0.000000 -1.000000 120 120 120
-4.115000 -0.050000 0.000000 -0.000000 0.000000 -1.000000 120 120 120
-4.115000 11.790000 0.000000 0.000000 -0.000000 1.000000 60 126 33
-5.385000 11.790000 0.000000 0.000000 -0.000000 1.000000 60 126 33
-5.385000 -11.790000 0.000000 0.000000 -0.000000 1.000000 60 126 33
-4.115000 -11.790000 0.000000 0.000000 -0.000000 1.000000 60 126 33
9.000000 18.500000 0.000000 0.000000 -0.000000 1.000000 60 126 33
-9.000000 18.500000 0.000000 0.000000 -0.000000 1.000000 60 126 33
-5.485000 11.890000 0.000000 0.000000 -0.000000 1.000000 60 126 33
5.485000 11.890000 0.000000 0.000000 -0.000000 1.000000 60 126 33
9.000000 -18.500000 0.000000 -0.000000 0.000000 1.000000 60 126 33
5.485000 -11.890000 0.000000 -0.000000 0.000000 1.000000 60 126 33
-9.000000 -18.500000 0.000000 0.000000 0.000000 1.000000 60 126 33
-5.485000 -11.890000 0.000000 0.000000 0.000000 1.000000 60 126 33
-9.000000 -18.500000 0.000000 1.000000 0.000000 0.000000 120 120 120
-9.000000 18.500000 0.000000 1.000000 0.000000 0.000000 120 120 120
-9.000000 18.500000 1.500000 1.000000 0.000000 0.000000 120 120 120
-9.000000 -18.500000 1.500000 1.000000 0.000000 0.000000 120 120 120
9.000000 -18.500000 0.000000 0.000000 1.000000 0.000000 120 120 120
-9.000000 -18.500000 0.000000 0.000000 1.000000 0.000000 120 120 120
-9.000000 -18.500000 1.500000 0.000000 1.000000 0.000000 120 120 120
9.000000 -18.500000 1.500000 0.000000 1.000000 0.000000 120 120 120
9.000000 18.500000 0.000000 -1.000000 0.000000 -0.000000 120 120 120
9.000000 -18.500000 0.000000 -1.000000 0.000000 -0.000000 120 120 120
9.000000 -18.500000 1.500000 -1.000000 0.000000 -0.000000 120 120 120
9.000000 18.500000 1.500000 -1.000000 0.000000 -0.000000 120 120 120
-9.000000 18.500000 0.000000 0.000000 -1.000000 -0.000000 120 120 120
9.000000 18.500000 0.000000 0.000000 -1.000000 -0.000000 120 120 120
9.000000 18.500000 1.500000 0.000000 -1.000000 -0.000000 120 120 120
-9.000000 18.500000 1.500000 0.000000 -1.000000 -0.000000 120 120 120
-9.000000 -18.500000 1.500000 -0.000000 0.000000 -1.000000 255 255 255
-9.000000 18.500000 1.500000 -0.000000 0.000000 -1.000000 120 120 120
-8.800000 18.299999 1.500000 -0.000000 0.000000 -1.000000 120 120 120
-8.800000 -18.299999 1.500000 -0.000000 0.000000 -1.000000 255 255 255
9.000000 18.500000 1.500000 0.000000 0.000000 -1.000000 120 120 120
9.000000 -18.500000 1.500000 0.000000 0.000000 -1.000000 255 255 255
8.800000 -18.299999 1.500000 0.000000 0.000000 -1.000000 255 255 255
8.800000 18.299999 1.500000 0.000000 0.000000 -1.000000 120 120 120
8.800000 18.299999 1.500000 -1.000000 0.000000 -0.000000 120 120 120
8.800000 -18.299999 1.500000 -1.000000 0.000000 -0.000000 120 120 120
8.800000 -18.299999 1.700000 -1.000000 0.000000 -0.000000 120 120 120
8.800000 18.299999 1.700000 -1.000000 0.000000 -0.000000 120 120 120
8.800000 -18.299999 1.500000 0.000000 1.000000 0.000000 120 120 120
-8.800000 -18.299999 1.500000 0.000000 1.000000 0.000000 120 120 120
-8.800000 -18.299999 1.700000 0.000000 1.000000 0.000000 120 120 120
8.800000 -18.299999 1.700000 0.000000 1.000000 0.000000 120 120 120
-8.800000 18.299999 1.500000 0.000000 -1.000000 -0.000000 120 120 120
8.800000 18.299999 1.500000 0.000000 -1.000000 -0.000000 120 120 120
8.800000 18.299999 1.700000 0.000000 -1.000000 -0.000000 120 120 120
-8.800000 18.299999 1.700000 0.000000 -1.000000 -0.000000 120 120 120
-8.800000 -18.299999 1.500000 1.000000 0.000000 0.000000 120 120 120
-8.800000 18.299999 1.500000 1.000000 0.000000 0.000000 120 120 120
-8.800000 18.299999 1.700000 1.000000 0.000000 0.000000 120 120 120
-8.800000 -18.299999 1.700000 1.000000 0.000000 0.000000 120 120 120
8.800000 -18.299999 1.700000 0.000000 -0.000000 1.000000 120 120 120
-8.800000 -18.299999 1.700000 0.000000 -0.000000 1.000000 120 120 120
-9.100000 -18.600000 1.700000 0.000000 -0.000000 1.000000 120 120 120
9.100000 -18.600000 1.700000 0.000000 -0.000000 1.000000 120 120 120
-8.800000 18.299999 1.700000 0.000000 0.000000 1.000000 120 120 120
8.800000 18.299999 1.700000 0.000000 0.000000 1.000000 120 120 120
9.100000 18.600000 1.700000 0.000000 0.000000 1.000000 120 120 120
-9.100000 18.600000 1.700000 0.000000 0.000000 1.000000 120 120 120
0.050000 11.890000 0.000000 0.000000 -0.000000 1.000000 202 202 202
0.050000 11.790000 0.000000 0.000000 -0.000000 1.000000 195 195 195
-0.050000 -11.890000 0.000000 0.000000 0.000000 1.000000 252 252 252
-0.050000 -11.790000 0.000000 0.000000 0.000000 1.000000 251 251 251
0.050000 -11.790000 0.000000 -0.000000 0.000000 1.000000 255 255 255
0.050000 -11.590000 0.000000 -0.000000 0.000000 1.000000 255 255 255
-0.050000 -11.590000 0.000000 -0.000000 0.000000 1.000000 255 255 255
-0.050000 -11.790000 0.000000 -0.000000 0.000000 1.000000 255 255 255
-0.050000 -11.790000 0.000000 0.000000 -0.000000 1.000000 60 126 33
0.050000 -6.400000 0.000000 0.000000 -0.000000 1.000000 60 126 33
-0.050000 -6.400000 0.000000 0.000000 -0.000000 1.000000 60 126 33
0.050000 -11.590000 0.000000 0.000000 -0.000000 1.000000 60 126 33
4.015000 -11.790000 0.000000 -0.000000 0.000000 1.000000 60 126 33
4.015000 -6.400000 0.000000 -0.000000 0.000000 1.000000 60 126 33
0.050000 -6.400000 0.000000 -0.000000 0.000000 1.000000 61 125 34
0.050000 -11.790000 0.000000 0.000000 0.000000 1.000000 60 126 33
-0.050000 6.400000 0.000000 0.000000 0.000000 1.000000 72 118 52
0.050000 6.400000 0.000000 0.000000 0.000000 1.000000 72 118 52
0.050000 11.590000 0.000000 0.000000 0.000000 1.000000 69 118 49
-0.050000 11.590000 0.000000 0.000000 0.000000 1.000000 69 118 49
-4.015000 11.790000 0.000000 0.000000 0.000000 1.000000 60 126 33
-0.050000 11.590000 0.000000 0.000000 0.000000 1.000000 60 126 33
-0.050000 11.790000 0.000000 0.000000 0.000000 1.000000 60 126 33
-4.015000 6.400000 0.000000 0.000000 0.000000 1.000000 60 126 33
-0.050000 6.400000 0.000000 0.000000 0.000000 1.000000 60 126 33
4.015000 11.790000 0.000000 0.000000 -0.000000 1.000000 60 126 33
0.050000 11.590000 0.000000 0.000000 -0.000000 1.000000 60 126 33
0.050000 6.400000 0.000000 0.000000 -0.000000 1.000000 60 126 33
4.015000 6.400000 0.000000 0.000000 -0.000000 1.000000 60 126 33
0.050000 11.790000 0.000000 0.000000 -0.000000 1.000000 60 126 33
4 0 1 2 3
4 4 5 6 7
4 8 9 10 11
4 12 13 14 15
4 16 17 18 19
4 20 21 22 23
4 24 25 26 27
4 28 29 30 31
4 32 33 34 35
4 36 37 38 39
4 40 41 42 43
4 44 45 46 47
4 48 49 50 51
4 52 53 54 55
4 56 57 58 59
4 60 61 62 63
4 64 65 66 67
4 68 69 70 71
4 72 73 74 75
4 76 77 78 79
4 80 81 82 83
4 84 85 86 87
4 88 89 90 91
4 92 74 73 93
4 94 95 96 97
4 98 78 77 99
4 100 101 102 103
4 101 76 79 102
4 104 105 106 107
4 84 104 107 85
4 108 109 110 111
4 80 108 111 81
4 112 72 75 113
4 114 112 113 115
4 102 79 116 117
4 107 106 118 119
4 113 75 120 121
4 111 110 122 123
4 124 125 126 127
4 128 129 130 131
4 132 133 134 135
4 135 134 136 137
4 137 136 138 139
4 140 141 142 143
4 144 145 146 147
4 148 149 150 151
4 117 116 139 138
4 119 118 151 150
4 151 118 152 153
4 154 155 156 157
4 138 158 159 117
4 133 122 160 161
4 161 160 162 163
4 140 163 162 121
4 164 165 166 167
4 168 169 170 171
4 147 172 173 144
4 163 170 169 161
4 158 168 171 153
4 174 175 176 177
4 178 179 180 181
4 182 183 184 185
4 186 187 188 189
4 190 191 192 193
4 194 195 196 197
4 198 199 200 201
4 202 203 204 205
4 88 91 206 207
4 208 209 210 211
4 212 213 214 215
4 216 212 215 217
4 218 216 217 219
4 218 219 214 213
4 220 221 222 223
4 224 225 226 227
4 228 229 230 231
4 232 233 234 235
4 236 237 238 239
4 240 241 242 243
4 241 236 239 242
4 237 240 243 238
4 244 245 246 247
4 248 249 250 251
4 252 253 254 255
4 256 257 258 259
4 260 261 262 263
4 264 265 266 267
4 261 264 267 262
4 265 260 263 266
4 109 268 269 110
4 268 114 115 269
4 105 270 271 106
4 270 100 103 271
4 272 273 274 275
3 204 203 276
4 277 278 204 279
4 280 281 282 279
3 283 280 279
4 284 285 286 287
3 288 289 290
4 288 291 292 289
4 293 294 295 296
3 297 294 293
